<svg xmlns="http://www.w3.org/2000/svg" viewBox="0 0 3243 512" width="3243" height="512" role="img" aria-label="OpenStreetlifting.org">
<defs>
    <!-- light reads top-left; one sweep instead of modelled gradients -->
    <linearGradient id="pl-sweep" x1="0.15" y1="0.05" x2="0.85" y2="0.95">
      <stop offset="0"    stop-color="#FFFFFF" stop-opacity="0.10"/>
      <stop offset="0.45" stop-color="#FFFFFF" stop-opacity="0"/>
      <stop offset="0.60" stop-color="#341117" stop-opacity="0"/>
      <stop offset="1"    stop-color="#341117" stop-opacity="0.20"/>
    </linearGradient>

    <linearGradient id="pl-edge" x1="0.14" y1="0.03" x2="0.86" y2="0.97">
      <stop offset="0"    stop-color="#C65367" stop-opacity="0.95"/>
      <stop offset="0.38" stop-color="#AE3A4E" stop-opacity="0.25"/>
      <stop offset="0.62" stop-color="#341117" stop-opacity="0.25"/>
      <stop offset="1"    stop-color="#341117" stop-opacity="0.85"/>
    </linearGradient>

    <linearGradient id="pl-collar" x1="0.15" y1="0.05" x2="0.85" y2="0.95">
      <stop offset="0"    stop-color="#969DA5"/>
      <stop offset="0.50" stop-color="#6E757D"/>
      <stop offset="1"    stop-color="#4C535A"/>
    </linearGradient>

    <filter id="pl-drop" x="-20%" y="-20%" width="140%" height="140%">
      <feDropShadow dx="0" dy="6" stdDeviation="7" flood-color="#341117" flood-opacity="0.32"/>
    </filter>
  </defs>

  <g filter="url(#pl-drop)">
    <!-- outer rim band -->
    <circle cx="256" cy="256" r="230" fill="#69232F"/>

    <!-- face -->
    <circle cx="256" cy="256" r="202" fill="#7F2A39"/>
    <circle cx="256" cy="256" r="202" fill="none" stroke="#5A1E28" stroke-width="2"/>

    <!-- hub, one flat step lighter -->
    <circle cx="256" cy="256" r="122" fill="#862E3D"/>
    <circle cx="256" cy="256" r="122" fill="none" stroke="#5A1E28" stroke-width="1.5" stroke-opacity="0.45"/>

    <!-- grey collar around the bar hole -->
    <circle cx="256" cy="256" r="41" fill="none" stroke="url(#pl-collar)" stroke-width="30"/>
    <circle cx="256" cy="256" r="56" fill="none" stroke="#3B4148" stroke-width="1.5" stroke-opacity="0.75"/>

    <!-- bore -->
    <circle cx="256" cy="256" r="26" fill="#241014"/>
    <circle cx="256" cy="256" r="26" fill="none" stroke="#3E444B" stroke-width="1.5" stroke-opacity="0.8"/>
  </g>

  <!-- light sweep + lit/shaded outer edge -->
  <circle cx="256" cy="256" r="230" fill="url(#pl-sweep)"/>
  <circle cx="256" cy="256" r="229" fill="none" stroke="url(#pl-edge)" stroke-width="2.5"/>
  <!-- Futura Light lettering converted to outlines for portable printing. -->
  <path fill="#FFFFFF" d="M677.76294 164.95750Q701.77043 164.95750 722.59383 177.01760Q743.41723 189.07770 755.73094 209.70386Q768.04464 230.33002 768.04464 254.28115Q768.04464 278.23229 755.73094 298.83027Q743.41723 319.42825 722.59383 331.51653Q701.77043 343.60481 677.76294 343.60481Q653.75545 343.60481 632.93205 331.51653Q612.10864 319.42825 599.79494 298.83027Q587.48124 278.23229 587.48124 254.28115Q587.48124 236.30371 594.52569 220.01694Q601.57014 203.73016 614.19380 191.27557Q626.81746 178.82098 643.24512 171.88924Q659.67279 164.95750 677.76294 164.95750ZM677.76294 175.32693Q656.51687 175.32693 638.28583 186.03450Q620.05479 196.74207 609.31904 215.00129Q598.58330 233.26051 598.58330 254.28115Q598.58330 275.30180 609.31904 293.56102Q620.05479 311.82024 638.28583 322.52781Q656.51687 333.23537 677.76294 333.23537Q698.89630 333.23537 717.18369 322.44327Q735.47109 311.65117 746.20684 293.47649Q756.94258 275.30180 756.94258 254.28115Q756.94258 238.50158 750.68711 224.01819Q744.43163 209.53479 733.52682 198.65816Q722.62201 187.78153 708.13862 181.55423Q693.65522 175.32693 677.76294 175.32693ZM806.08468 258.67689L806.08468 341.29423L795.03898 341.29423L795.03898 167.26808L825.75279 167.26808Q838.15103 167.26808 847.08339 169.21235Q856.01576 171.15662 863.34199 177.41209Q879.06520 190.71202 879.06520 213.19791Q879.06520 223.06014 875.31756 232.35882Q871.56991 241.65750 864.52546 247.57484Q851.73273 258.67689 825.75279 258.67689ZM806.08468 248.25110L826.20364 248.25110Q835.89680 248.25110 843.19485 246.33501Q850.49291 244.41892 856.63567 238.78336Q867.96315 228.52664 867.96315 212.74706Q867.96315 204.23737 864.58181 196.74207Q861.20047 189.24677 854.83229 184.56925Q849.02766 180.11716 841.87050 178.87734Q834.71333 177.63751 824.34390 177.63751L806.08468 177.63751ZM987.04257 177.63751L915.02009 177.63751L915.02009 240.86852L985.23919 240.86852L985.23919 251.29431L915.02009 251.29431L915.02009 330.92479L987.04257 330.92479L987.04257 341.29423L903.97439 341.29423L903.97439 167.26808L987.04257 167.26808ZM1178.20082 167.26808L1178.20082 347.04250L1032.07071 191.72642L1032.07071 341.29423L1021.02501 341.29423L1021.02501 164.95750L1167.15512 319.14647L1167.15512 167.26808ZM1304.04292 189.41584L1296.15313 195.89673Q1283.24769 175.32693 1260.87451 175.32693Q1251.74490 175.32693 1244.22143 179.80721Q1236.69795 184.28748 1232.38675 191.95184Q1228.07554 199.61620 1228.07554 208.57675Q1228.07554 220.58049 1236.19075 227.25864Q1244.30596 233.93678 1259.46562 241.09394L1292.71544 258.45147Q1312.55261 270.96242 1312.55261 293.05382Q1312.55261 307.08637 1304.88825 318.69562Q1297.22389 330.30488 1284.65658 336.95484Q1272.08928 343.60481 1258.05673 343.60481Q1240.24836 343.60481 1226.63848 333.48897Q1213.02859 323.37314 1206.82948 306.18468L1216.52264 301.84529Q1222.43998 316.49776 1232.97848 324.86656Q1243.51698 333.23537 1258.56393 333.23537Q1269.89141 333.23537 1279.75364 327.76888Q1289.61588 322.30238 1295.53322 312.86282Q1301.45056 303.42325 1301.45056 292.15213Q1301.45056 283.19159 1296.32220 276.71069Q1291.19384 270.22979 1284.71294 266.39761Q1278.23204 262.56543 1266.39736 256.81716L1235.00728 240.19225Q1216.97349 229.03384 1216.97349 209.02759Q1216.97349 196.29122 1222.66540 186.20357Q1228.35732 176.11591 1238.52951 170.53671Q1248.70170 164.95750 1261.55078 164.95750Q1274.73799 164.95750 1286.26272 171.55111Q1297.78744 178.14471 1304.04292 189.41584ZM1379.95393 177.63751L1379.95393 341.29423L1368.85188 341.29423L1368.85188 177.63751L1323.88009 177.63751L1323.88009 167.26808L1424.98207 167.26808L1424.98207 177.63751ZM1474.12417 258.90231L1531.15605 341.29423L1518.41968 341.29423L1461.66958 258.90231L1456.09037 258.90231L1456.09037 341.29423L1445.04467 341.29423L1445.04467 167.26808L1466.74158 167.26808Q1480.43600 167.26808 1489.56561 168.81786Q1498.69522 170.36764 1506.41594 176.00320Q1523.99889 188.40144 1523.99889 213.42333Q1523.99889 228.13215 1517.65888 238.38887Q1511.31888 248.64559 1500.01958 253.77395Q1488.72027 258.90231 1474.12417 258.90231ZM1456.09037 248.47653L1470.17928 248.47653Q1480.49235 248.47653 1487.59316 247.01128Q1494.69397 245.54603 1500.66767 240.41767Q1512.89683 230.49908 1512.89683 212.97249Q1512.89683 206.43523 1510.83985 200.20794Q1508.78287 193.98064 1504.64074 189.13406Q1500.49860 184.28748 1494.41219 181.58241Q1485.16987 177.63751 1463.24754 177.63751L1456.09037 177.63751ZM1640.76773 177.63751L1568.74525 177.63751L1568.74525 240.86852L1638.96435 240.86852L1638.96435 251.29431L1568.74525 251.29431L1568.74525 330.92479L1640.76773 330.92479L1640.76773 341.29423L1557.69955 341.29423L1557.69955 167.26808L1640.76773 167.26808ZM1757.81835 177.63751L1685.79587 177.63751L1685.79587 240.86852L1756.01497 240.86852L1756.01497 251.29431L1685.79587 251.29431L1685.79587 330.92479L1757.81835 330.92479L1757.81835 341.29423L1674.75017 341.29423L1674.75017 167.26808L1757.81835 167.26808ZM1830.57345 177.63751L1830.57345 341.29423L1819.47139 341.29423L1819.47139 177.63751L1774.49961 177.63751L1774.49961 167.26808L1875.60159 167.26808L1875.60159 177.63751ZM1906.70989 167.26808L1906.70989 330.92479L1951.06176 330.92479L1951.06176 341.29423L1895.66419 341.29423L1895.66419 167.26808ZM1982.17006 167.26808L1982.17006 341.29423L1971.12436 341.29423L1971.12436 167.26808ZM2089.75293 177.63751L2030.63589 177.63751L2030.63589 240.86852L2088.11862 240.86852L2088.11862 251.29431L2030.63589 251.29431L2030.63589 341.29423L2019.59019 341.29423L2019.59019 167.26808L2089.75293 167.26808ZM2160.87372 177.63751L2160.87372 341.29423L2149.77167 341.29423L2149.77167 177.63751L2104.79988 177.63751L2104.79988 167.26808L2205.90186 167.26808L2205.90186 177.63751ZM2237.01016 167.26808L2237.01016 341.29423L2225.96446 341.29423L2225.96446 167.26808ZM2431.60611 167.26808L2431.60611 347.04250L2285.47599 191.72642L2285.47599 341.29423L2274.43029 341.29423L2274.43029 164.95750L2420.56041 319.14647L2420.56041 167.26808ZM2558.80074 257.49342L2632.23211 257.49342Q2632.23211 269.38446 2630.79504 279.33123Q2629.35797 289.27799 2625.32855 298.37942Q2621.29912 307.48086 2613.97289 315.42700Q2601.74372 328.72692 2584.13259 336.16587Q2566.52146 343.60481 2547.98046 343.60481Q2530.22844 343.60481 2513.96984 336.61671Q2497.71125 329.62861 2485.22848 317.23038Q2472.74571 304.83214 2465.67308 288.71444Q2458.60045 272.59673 2458.60045 254.95742Q2458.60045 230.55544 2470.82962 209.81657Q2483.05879 189.07770 2503.93855 177.01760Q2524.81830 164.95750 2549.33299 164.95750Q2564.71808 164.95750 2578.58156 169.83226Q2592.44504 174.70702 2603.99794 183.83663Q2615.55085 192.96624 2624.84952 205.58990L2615.83262 212.74706Q2610.25342 204.23737 2602.81448 197.16474Q2595.37553 190.09211 2586.97855 185.27370Q2578.58156 180.45529 2568.83204 177.89111Q2559.08252 175.32693 2548.65673 175.32693Q2527.97422 175.32693 2509.65864 186.31628Q2491.34306 197.30562 2480.52279 215.50849Q2469.70251 233.71135 2469.70251 254.28115Q2469.70251 275.24544 2480.35372 293.50466Q2491.00493 311.76388 2509.20780 322.49963Q2527.41066 333.23537 2548.65673 333.23537Q2576.04556 333.23537 2599.88398 314.07446Q2607.15386 307.87535 2611.77502 300.80272Q2616.39618 293.73009 2618.59405 285.61488Q2620.79192 277.49967 2621.13005 267.86286L2558.80074 267.86286ZM2676.30220 324.66932Q2680.35981 324.66932 2683.06488 327.37439Q2685.76994 330.07946 2685.76994 334.13706Q2685.76994 338.19467 2683.00852 340.89974Q2680.24709 343.60481 2676.30220 343.60481Q2672.35731 343.60481 2669.59588 340.84338Q2666.83446 338.08196 2666.83446 334.13706Q2666.83446 330.19217 2669.53953 327.43075Q2672.24460 324.66932 2676.30220 324.66932ZM2810.65399 164.95750Q2834.66149 164.95750 2855.48489 177.01760Q2876.30829 189.07770 2888.62199 209.70386Q2900.93569 230.33002 2900.93569 254.28115Q2900.93569 278.23229 2888.62199 298.83027Q2876.30829 319.42825 2855.48489 331.51653Q2834.66149 343.60481 2810.65399 343.60481Q2786.64650 343.60481 2765.82310 331.51653Q2744.99970 319.42825 2732.68600 298.83027Q2720.37229 278.23229 2720.37229 254.28115Q2720.37229 236.30371 2727.41675 220.01694Q2734.46120 203.73016 2747.08486 191.27557Q2759.70851 178.82098 2776.13618 171.88924Q2792.56384 164.95750 2810.65399 164.95750ZM2810.65399 175.32693Q2789.40793 175.32693 2771.17688 186.03450Q2752.94584 196.74207 2742.21010 215.00129Q2731.47435 233.26051 2731.47435 254.28115Q2731.47435 275.30180 2742.21010 293.56102Q2752.94584 311.82024 2771.17688 322.52781Q2789.40793 333.23537 2810.65399 333.23537Q2831.78735 333.23537 2850.07475 322.44327Q2868.36215 311.65117 2879.09789 293.47649Q2889.83364 275.30180 2889.83364 254.28115Q2889.83364 238.50158 2883.57816 224.01819Q2877.32269 209.53479 2866.41788 198.65816Q2855.51306 187.78153 2841.02967 181.55423Q2826.54628 175.32693 2810.65399 175.32693ZM2957.00953 258.90231L3014.04142 341.29423L3001.30505 341.29423L2944.55494 258.90231L2938.97573 258.90231L2938.97573 341.29423L2927.93003 341.29423L2927.93003 167.26808L2949.62695 167.26808Q2963.32136 167.26808 2972.45097 168.81786Q2981.58058 170.36764 2989.30130 176.00320Q3006.88425 188.40144 3006.88425 213.42333Q3006.88425 228.13215 3000.54425 238.38887Q2994.20424 248.64559 2982.90494 253.77395Q2971.60564 258.90231 2957.00953 258.90231ZM2938.97573 248.47653L2953.06464 248.47653Q2963.37772 248.47653 2970.47852 247.01128Q2977.57933 245.54603 2983.55303 240.41767Q2995.78220 230.49908 2995.78220 212.97249Q2995.78220 206.43523 2993.72522 200.20794Q2991.66824 193.98064 2987.52610 189.13406Q2983.38396 184.28748 2977.29755 181.58241Q2968.05523 177.63751 2946.13290 177.63751L2938.97573 177.63751ZM3130.35941 257.49342L3203.79078 257.49342Q3203.79078 269.38446 3202.35371 279.33123Q3200.91664 289.27799 3196.88722 298.37942Q3192.85779 307.48086 3185.53156 315.42700Q3173.30239 328.72692 3155.69126 336.16587Q3138.08013 343.60481 3119.53913 343.60481Q3101.78711 343.60481 3085.52852 336.61671Q3069.26992 329.62861 3056.78715 317.23038Q3044.30438 304.83214 3037.23175 288.71444Q3030.15912 272.59673 3030.15912 254.95742Q3030.15912 230.55544 3042.38829 209.81657Q3054.61746 189.07770 3075.49722 177.01760Q3096.37697 164.95750 3120.89167 164.95750Q3136.27675 164.95750 3150.14023 169.83226Q3164.00371 174.70702 3175.55662 183.83663Q3187.10952 192.96624 3196.40819 205.58990L3187.39130 212.74706Q3181.81209 204.23737 3174.37315 197.16474Q3166.93421 190.09211 3158.53722 185.27370Q3150.14023 180.45529 3140.39071 177.89111Q3130.64119 175.32693 3120.21540 175.32693Q3099.53289 175.32693 3081.21731 186.31628Q3062.90174 197.30562 3052.08146 215.50849Q3041.26118 233.71135 3041.26118 254.28115Q3041.26118 275.24544 3051.91239 293.50466Q3062.56360 311.76388 3080.76647 322.49963Q3098.96933 333.23537 3120.21540 333.23537Q3147.60423 333.23537 3171.44266 314.07446Q3178.71253 307.87535 3183.33369 300.80272Q3187.95485 293.73009 3190.15272 285.61488Q3192.35059 277.49967 3192.68872 267.86286L3130.35941 267.86286Z"/>
</svg>
