<svg width="56" height="51" viewBox="0 0 56 51" fill="none" xmlns="http://www.w3.org/2000/svg">
<g filter="url(#filter0_d_14_70)">
<path d="M28 2C40.9313 2 50 9.9905 50 21.4735C50 33.0095 40.9313 41 28 41C15.0127 41 6 33.0095 6 21.4735C6 9.9905 15.0127 2 28 2ZM28 27.2944C31.2468 27.2944 33.9338 24.7015 33.9338 21.4735C33.9338 18.1398 31.4148 15.7056 28 15.7056C24.5293 15.7056 22.0102 18.1398 22.0102 21.4735C22.0102 24.7015 24.6972 27.2944 28 27.2944Z" fill="url(#paint0_radial_14_70)"/>
<path d="M28 2C40.9313 2 50 9.9905 50 21.4735C50 33.0095 40.9313 41 28 41C15.0127 41 6 33.0095 6 21.4735C6 9.9905 15.0127 2 28 2ZM28 27.2944C31.2468 27.2944 33.9338 24.7015 33.9338 21.4735C33.9338 18.1398 31.4148 15.7056 28 15.7056C24.5293 15.7056 22.0102 18.1398 22.0102 21.4735C22.0102 24.7015 24.6972 27.2944 28 27.2944Z" stroke="#A21717" stroke-width="4"/>
</g>
<defs>
<filter id="filter0_d_14_70" x="0" y="0" width="56" height="51" filterUnits="userSpaceOnUse" color-interpolation-filters="sRGB">
<feFlood flood-opacity="0" result="BackgroundImageFix"/>
<feColorMatrix in="SourceAlpha" type="matrix" values="0 0 0 0 0 0 0 0 0 0 0 0 0 0 0 0 0 0 127 0" result="hardAlpha"/>
<feOffset dy="4"/>
<feGaussianBlur stdDeviation="2"/>
<feComposite in2="hardAlpha" operator="out"/>
<feColorMatrix type="matrix" values="0 0 0 0 0 0 0 0 0 0 0 0 0 0 0 0 0 0 0.4 0"/>
<feBlend mode="normal" in2="BackgroundImageFix" result="effect1_dropShadow_14_70"/>
<feBlend mode="normal" in="SourceGraphic" in2="effect1_dropShadow_14_70" result="shape"/>
</filter>
<radialGradient id="paint0_radial_14_70" cx="0" cy="0" r="1" gradientTransform="matrix(0.208673 25.631 -27.1143 0.197257 28.3056 24.836)" gradientUnits="userSpaceOnUse">
<stop stop-color="#DE2525"/>
<stop offset="1" stop-color="#AD1E1E"/>
</radialGradient>
</defs>
</svg>
