<svg width="220" height="127" viewBox="0 0 220 127" fill="none" xmlns="http://www.w3.org/2000/svg">
<g filter="url(#filter0_d_37_3)">
<path d="M33.1764 65.28C34.2564 70.72 29.9764 76 24.6164 76H7.29636C7.13636 76 7.01636 75.88 7.01636 75.72V67.64C7.01636 67.44 7.13636 67.32 7.33636 67.32H20.6164C21.0564 67.32 21.3764 67 21.3764 66.56C21.3764 66.16 21.0564 65.84 20.6164 65.84H14.7364C9.41636 65.84 5.17636 61.04 6.13636 55.52C6.89636 51.12 10.8964 48 15.3764 48H32.0164C32.2164 48 32.3364 48.16 32.3364 48.32V56.44C32.3364 56.6 32.2164 56.72 32.0564 56.72H18.7364C18.2964 56.72 17.9764 57.04 17.9764 57.48C17.9764 57.88 18.2964 58.2 18.7364 58.2H24.3364C28.5764 58.2 32.4164 61.12 33.1764 65.28Z" fill="white"/>
<path d="M61.7617 48.04V57.48H54.5617C54.4017 57.48 54.2417 57.6 54.2417 57.76V75.72C54.2417 75.88 54.1217 76.04 53.9617 76.04H43.6017C43.4417 76.04 43.2817 75.88 43.2817 75.72V57.76C43.2817 57.6 43.1617 57.48 43.0017 57.48H35.8017C35.6417 57.48 35.5217 57.32 35.5217 57.16V48.32C35.5217 48.16 35.6417 48.04 35.8017 48.04H61.7617Z" fill="white"/>
<path d="M93.8117 75.92C93.9317 76.08 93.8117 76.32 93.5717 76.32H82.2517C82.1317 76.32 82.0517 76.28 81.9717 76.2L78.8117 70.76C78.7717 70.68 78.6517 70.6 78.5317 70.6H76.6517C76.5317 70.6 76.3717 70.76 76.3717 70.88V76.04C76.3717 76.2 76.2517 76.32 76.0917 76.32H65.6917C65.5317 76.32 65.4117 76.2 65.4117 76.04V48.64C65.4117 48.48 65.5317 48.32 65.6917 48.32H81.6517C87.8117 48.32 92.7717 53.32 92.7717 59.48C92.7717 62.68 91.4117 65.56 89.2517 67.6C89.1317 67.72 89.1317 67.84 89.1717 67.96L93.8117 75.92ZM79.2517 62.12C80.5717 62.12 81.7717 61.16 81.8917 59.84C82.0517 58.32 80.8517 57.04 79.3717 57.04H76.6917C76.5317 57.04 76.3717 57.16 76.3717 57.32V61.8C76.3717 62 76.5317 62.12 76.6917 62.12H79.2517Z" fill="white"/>
<path d="M109.46 56.72C109.3 56.72 109.18 56.84 109.18 57V57.92C109.18 58.08 109.3 58.2 109.46 58.2H122.62C122.78 58.2 122.9 58.36 122.9 58.52V65.52C122.9 65.68 122.78 65.84 122.62 65.84H109.46C109.3 65.84 109.18 65.96 109.18 66.12V67.04C109.18 67.2 109.3 67.32 109.46 67.32H123.22C123.38 67.32 123.5 67.44 123.5 67.6V75.72C123.5 75.88 123.38 76 123.22 76H98.5C98.34 76 98.22 75.88 98.22 75.72V48.32C98.22 48.16 98.34 48.04 98.5 48.04H123.22C123.38 48.04 123.5 48.16 123.5 48.32V56.44C123.5 56.6 123.38 56.72 123.22 56.72H109.46Z" fill="white"/>
<path d="M139.96 56.72C139.8 56.72 139.68 56.84 139.68 57V57.92C139.68 58.08 139.8 58.2 139.96 58.2H153.12C153.28 58.2 153.4 58.36 153.4 58.52V65.52C153.4 65.68 153.28 65.84 153.12 65.84H139.96C139.8 65.84 139.68 65.96 139.68 66.12V67.04C139.68 67.2 139.8 67.32 139.96 67.32H153.72C153.88 67.32 154 67.44 154 67.6V75.72C154 75.88 153.88 76 153.72 76H129C128.84 76 128.72 75.88 128.72 75.72V48.32C128.72 48.16 128.84 48.04 129 48.04H153.72C153.88 48.04 154 48.16 154 48.32V56.44C154 56.6 153.88 56.72 153.72 56.72H139.96Z" fill="white"/>
<path d="M31.0964 105.9C31.2564 105.9 31.3764 106.06 31.3764 106.22V115.06C31.3764 115.22 31.2564 115.34 31.0964 115.34H7.61637C7.45637 115.34 7.33636 115.22 7.33636 115.06V87.6601C7.33636 87.5001 7.45637 87.3401 7.61637 87.3401H17.9764C18.1364 87.3401 18.2564 87.5001 18.2564 87.6601V105.62C18.2564 105.78 18.4164 105.9 18.5764 105.9H31.0964Z" fill="white"/>
<path d="M45.22 87.6601C45.38 87.6601 45.5 87.7801 45.5 87.9401V115.34C45.5 115.5 45.38 115.62 45.22 115.62H34.82C34.66 115.62 34.54 115.5 34.54 115.34V93.6202C34.54 93.4602 34.66 87.6601 34.82 87.6601H45.22Z" fill="white"/>
<path d="M75.9317 87.6201C76.0917 87.6201 76.2517 87.7401 76.2517 87.9001V95.9801C76.2517 96.1801 76.0917 96.3001 75.9317 96.3001H62.2517C62.0917 96.3001 61.9717 96.4201 61.9717 96.6201V97.9801C61.9717 98.1401 62.0917 98.2601 62.2517 98.2601H75.3717C75.5317 98.2601 75.6517 98.4201 75.6517 98.5801V105.58C75.6517 105.74 75.5317 105.9 75.3717 105.9H62.2517C62.0917 105.9 61.9717 106.02 61.9717 106.18V115.3C61.9717 115.46 61.8117 115.62 61.6517 115.62H51.2917C51.1317 115.62 51.0117 115.46 51.0117 115.3V87.9001C51.0117 87.7401 51.1317 87.6201 51.2917 87.6201H75.9317Z" fill="white"/>
<path d="M121.3 87.9401C121.46 87.9401 130.96 88.0601 130.96 88.2201V96.9401C130.96 96.9401 130.62 96.9401 130.46 96.9401L100.472 97.3801C100.312 97.3801 100.152 97.5001 100.152 97.6601V115.62C100.152 115.78 100.032 115.94 99.8717 115.94H89.5117C89.3517 115.94 89.1917 115.78 89.1917 115.62V97.6601C89.1917 97.5001 89.0717 97.3801 88.9117 97.3801H81.7117C81.5517 97.3801 81.4317 97.2201 81.4317 97.0601V88.2201C81.4317 88.0601 81.5517 87.9401 81.7117 87.9401H121.3Z" fill="#BC2222"/>
<path d="M147.992 89.2201C148.152 89.2201 148.272 89.3401 148.272 89.5001V116.9C148.272 117.06 148.152 117.18 147.992 117.18H137.592C137.432 117.18 137.312 117.06 137.312 116.9V89.5001C137.312 89.3401 137.432 89.2201 137.592 89.2201H147.992Z" fill="white"/>
<path d="M181.72 89.5001C181.88 89.5001 182 89.6201 182 89.7401V117.18C182 117.34 181.88 117.46 181.72 117.46H170.68C170.56 117.46 170.48 117.42 170.44 117.34L166.68 109.5C166.56 109.22 166.12 109.3 166.12 109.62V117.22C166.12 117.34 166 117.5 165.84 117.5H155.44C155.28 117.5 155.16 117.34 155.16 117.22V89.7801C155.16 89.6201 155.28 89.5001 155.44 89.5001H166.8C166.92 89.5001 167 89.5401 167.04 89.6601L170.44 97.1401C170.6 97.4201 171 97.3401 171 97.0201V89.7801C171 89.6201 171.12 89.5001 171.28 89.5001H181.72Z" fill="white"/>
<path d="M202.42 100.66C199.54 100.66 198.06 101.98 198.06 104.46C198.06 106.98 199.54 108.3 202.42 108.3H204.66C204.82 108.3 204.94 108.14 204.94 107.98V102.46C204.94 102.3 205.1 102.18 205.26 102.18H215.22C215.38 102.18 215.5 102.3 215.5 102.46V118.18C215.5 118.34 215.38 118.46 215.22 118.46H201.34C192.06 118.46 186.74 113.38 186.74 104.46C186.74 95.5801 192.06 90.5001 201.34 90.5001H215.22C215.38 90.5001 215.5 90.6201 215.5 90.7801V100.38C215.5 100.54 215.38 100.66 215.22 100.66H202.42Z" fill="white"/>
<path d="M61.7617 48.04V57.48H54.5617C54.4017 57.48 54.2417 57.6 54.2417 57.76V75.72C54.2417 75.88 54.1217 76.04 53.9617 76.04H43.6017C43.4417 76.04 43.2817 75.88 43.2817 75.72V57.76C43.2817 57.6 43.1617 57.48 43.0017 57.48H35.8017C35.6417 57.48 35.5217 57.32 35.5217 57.16V48.32C35.5217 48.16 35.6417 48.04 35.8017 48.04H61.7617Z" fill="white"/>
<path d="M186.74 48.32V53.5V57.78C186.74 57.78 193.472 57.8 185.712 57.78L177.752 57.76C177.592 57.76 177.432 57.88 177.432 58.04V76C177.432 76.16 177.312 76.32 177.152 76.32H166.792C166.632 76.32 166.472 76.16 166.472 76V58.04C166.472 57.88 166.352 57.76 166.192 57.76H158.992C158.832 57.76 158.712 57.6 158.712 57.44V48.6C158.712 48.44 158.832 48.32 158.992 48.32H184.952C192.712 48.32 190.24 48.32 186.74 48.32Z" fill="white"/>
</g>
<path d="M75.84 10C82.04 10 87.08 15.12 86.96 21.36C86.84 27.48 81.6 32.28 75.44 32.28H70.88C70.72 32.28 70.56 32.44 70.56 32.6V37.72C70.56 37.88 70.44 38 70.28 38H59.88C59.72 38 59.6 37.88 59.6 37.72V10.32C59.6 10.16 59.72 10 59.88 10H75.84ZM73.44 23.8C74.76 23.8 75.96 22.84 76.08 21.52C76.24 20 75.04 18.72 73.56 18.72H70.88C70.72 18.72 70.56 18.84 70.56 19V23.48C70.56 23.68 70.72 23.8 70.88 23.8H73.44ZM101.376 18.72C101.216 18.72 101.096 18.84 101.096 19V19.92C101.096 20.08 101.216 20.2 101.376 20.2H114.536C114.696 20.2 114.816 20.36 114.816 20.52V27.52C114.816 27.68 114.696 27.84 114.536 27.84H101.376C101.216 27.84 101.096 27.96 101.096 28.12V29.04C101.096 29.2 101.216 29.32 101.376 29.32H115.136C115.296 29.32 115.416 29.44 115.416 29.6V37.72C115.416 37.88 115.296 38 115.136 38H90.4159C90.2559 38 90.1359 37.88 90.1359 37.72V10.32C90.1359 10.16 90.2559 10.04 90.4159 10.04H115.136C115.296 10.04 115.416 10.16 115.416 10.32V18.44C115.416 18.6 115.296 18.72 115.136 18.72H101.376ZM146.216 10.04C146.376 10.04 146.496 10.16 146.496 10.28V37.72C146.496 37.88 146.376 38 146.216 38H135.176C135.056 38 134.976 37.96 134.936 37.88L131.176 30.04C131.056 29.76 130.616 29.84 130.616 30.16V37.76C130.616 37.88 130.496 38.04 130.336 38.04H119.936C119.776 38.04 119.656 37.88 119.656 37.76V10.32C119.656 10.16 119.776 10.04 119.936 10.04H131.296C131.416 10.04 131.496 10.08 131.536 10.2L134.936 17.68C135.096 17.96 135.496 17.88 135.496 17.56V10.32C135.496 10.16 135.616 10.04 135.776 10.04H146.216Z" fill="white"/>
<g filter="url(#filter1_d_37_3)">
<path d="M28 2C40.9313 2 50 9.9905 50 21.4735C50 33.0095 40.9313 41 28 41C15.0127 41 6 33.0095 6 21.4735C6 9.9905 15.0127 2 28 2ZM28 27.2944C31.2468 27.2944 33.9338 24.7015 33.9338 21.4735C33.9338 18.1398 31.4148 15.7056 28 15.7056C24.5293 15.7056 22.0102 18.1398 22.0102 21.4735C22.0102 24.7015 24.6972 27.2944 28 27.2944Z" fill="url(#paint0_radial_37_3)"/>
<path d="M28 2C40.9313 2 50 9.9905 50 21.4735C50 33.0095 40.9313 41 28 41C15.0127 41 6 33.0095 6 21.4735C6 9.9905 15.0127 2 28 2ZM28 27.2944C31.2468 27.2944 33.9338 24.7015 33.9338 21.4735C33.9338 18.1398 31.4148 15.7056 28 15.7056C24.5293 15.7056 22.0102 18.1398 22.0102 21.4735C22.0102 24.7015 24.6972 27.2944 28 27.2944Z" stroke="#A21717" stroke-width="4"/>
</g>
<defs>
<filter id="filter0_d_37_3" x="2" y="48" width="217.5" height="78.4601" filterUnits="userSpaceOnUse" color-interpolation-filters="sRGB">
<feFlood flood-opacity="0" result="BackgroundImageFix"/>
<feColorMatrix in="SourceAlpha" type="matrix" values="0 0 0 0 0 0 0 0 0 0 0 0 0 0 0 0 0 0 127 0" result="hardAlpha"/>
<feOffset dy="4"/>
<feGaussianBlur stdDeviation="2"/>
<feComposite in2="hardAlpha" operator="out"/>
<feColorMatrix type="matrix" values="0 0 0 0 0 0 0 0 0 0 0 0 0 0 0 0 0 0 0.25 0"/>
<feBlend mode="normal" in2="BackgroundImageFix" result="effect1_dropShadow_37_3"/>
<feBlend mode="normal" in="SourceGraphic" in2="effect1_dropShadow_37_3" result="shape"/>
</filter>
<filter id="filter1_d_37_3" x="0" y="0" width="56" height="51" filterUnits="userSpaceOnUse" color-interpolation-filters="sRGB">
<feFlood flood-opacity="0" result="BackgroundImageFix"/>
<feColorMatrix in="SourceAlpha" type="matrix" values="0 0 0 0 0 0 0 0 0 0 0 0 0 0 0 0 0 0 127 0" result="hardAlpha"/>
<feOffset dy="4"/>
<feGaussianBlur stdDeviation="2"/>
<feComposite in2="hardAlpha" operator="out"/>
<feColorMatrix type="matrix" values="0 0 0 0 0 0 0 0 0 0 0 0 0 0 0 0 0 0 0.4 0"/>
<feBlend mode="normal" in2="BackgroundImageFix" result="effect1_dropShadow_37_3"/>
<feBlend mode="normal" in="SourceGraphic" in2="effect1_dropShadow_37_3" result="shape"/>
</filter>
<radialGradient id="paint0_radial_37_3" cx="0" cy="0" r="1" gradientTransform="matrix(0.208673 25.631 -27.1143 0.197257 28.3056 24.836)" gradientUnits="userSpaceOnUse">
<stop stop-color="#DE2525"/>
<stop offset="1" stop-color="#AD1E1E"/>
</radialGradient>
</defs>
</svg>
